Coordinates
version=1
nRows=15
nColumns=46
inDegrees=yes

Units are S.I. units (second, meters, Newtons, ...)
Angles are in degrees.

endheader
time	pelvis_tilt	pelvis_list	pelvis_rotation	pelvis_tx	pelvis_ty	pelvis_tz	bb_angle	bb_tx	bb_ty	bb_tz	hip_flexion_r	hip_adduction_r	hip_rotation_r	knee_angle_r	knee_angle_r_beta	ankle_angle_r	subtalar_angle_r	mtp_angle_r	crank_angle_r	hip_flexion_l	hip_adduction_l	hip_rotation_l	knee_angle_l	knee_angle_l_beta	ankle_angle_l	subtalar_angle_l	mtp_angle_l	crank_angle_l	lumbar_extension	lumbar_bending	lumbar_rotation	arm_flex_r	arm_add_r	arm_rot_r	elbow_flex_r	pro_sup_r	wrist_flex_r	wrist_dev_r	arm_flex_l	arm_add_l	arm_rot_l	elbow_flex_l	pro_sup_l	wrist_flex_l	wrist_dev_l
      5.00500000	    -36.77981251	     -4.70374043	     -3.34390000	      0.37885652	      1.07823811	     -0.20635468	      0.00000000	      0.50000000	      0.00000000	      0.25000000	     90.40312682	      5.75979947	      3.78846028	    104.08584255	      1.81664066	      1.29900320	     -9.02382262	      0.00000000	      0.00000000	     38.03950852	    -11.70324367	     -9.30845696	     25.41413766	      0.44356038	    -37.30915257	     -9.62118427	      0.00000000	      0.00000000	    -65.95435123	      1.98564756	      3.37343793	     41.84496212	    -34.76492131	     30.33167835	    127.00611348	     58.08096681	      0.00000000	      0.00000000	     22.71017320	    -27.49041636	      4.82779972	    130.74892985	     56.83407954	      0.00000000	      0.00000000
      5.01000000	    -37.32119221	     -4.78311904	     -3.71628918	      0.37839766	      1.07981532	     -0.20555966	      0.00000000	      0.50000000	      0.00000000	      0.25000000	     90.22183023	      6.01707530	      3.59312527	    102.11144057	      1.78218084	      2.86937109	     -8.77160841	      0.00000000	      0.00000000	     39.15322489	    -11.87892283	     -8.11729480	     27.73493385	      0.48406591	    -36.95594467	    -11.34451308	      0.00000000	      0.00000000	    -65.70939966	      1.76931256	      3.54819541	     42.39669888	    -34.88002098	     30.64455631	    127.07941405	     58.11512321	      0.00000000	      0.00000000	     22.66829461	    -27.48696102	      4.46439404	    130.67849627	     56.78771237	      0.00000000	      0.00000000
      5.01500000	    -37.71556667	     -4.65769955	     -3.99368572	      0.37807658	      1.08165802	     -0.20480279	      0.00000000	      0.50000000	      0.00000000	      0.25000000	     89.74860104	      6.10205023	      3.57933866	     99.97183681	      1.74483771	      4.33597724	     -8.72534887	      0.00000000	      0.00000000	     40.15094130	    -11.79783890	     -6.99957878	     30.01800072	      0.52391295	    -36.73992336	    -12.70636912	      0.00000000	      0.00000000	    -65.65292521	      1.51941133	      3.60130663	     42.71119444	    -34.91310453	     30.82951310	    127.10904583	     58.13136357	      0.00000000	      0.00000000	     22.70441627	    -27.56389589	      4.14230608	    130.59822833	     56.73893069	      0.00000000	      0.00000000
      5.02000000	    -38.05300291	     -4.55514606	     -4.22086865	      0.37800715	      1.08344670	     -0.20394129	      0.00000000	      0.50000000	      0.00000000	      0.25000000	     89.01221069	      6.22332007	      3.57819969	     97.62985995	      1.70396250	      5.84496600	     -8.74050506	      0.00000000	      0.00000000	     41.19518541	    -11.71876996	     -5.81593145	     32.36664958	      0.56490460	    -36.64390234	    -13.82241400	      0.00000000	      0.00000000	    -65.59158082	      1.26711120	      3.62415674	     42.86529560	    -34.92635442	     30.95586886	    127.12630576	     58.14237584	      0.00000000	      0.00000000	     22.73390839	    -27.65511104	      3.83559665	    130.49885228	     56.68613399	      0.00000000	      0.00000000
      5.02500000	    -38.70683961	     -4.45489002	     -4.23034244	      0.37746989	      1.08435800	     -0.20361577	      0.00000000	      0.50000000	      0.00000000	      0.25000000	     88.56289248	      5.99714632	      3.49552354	     95.13432132	      1.66040714	      7.01814282	     -8.34171420	      0.00000000	      0.00000000	     42.82439455	    -11.43759056	     -4.24271958	     34.86156643	      0.60844912	    -36.77192488	    -14.56136610	      0.00000000	      0.00000000	    -65.09336619	      1.26675260	      3.57668296	     42.94839534	    -35.08184312	     31.32359978	    127.10389100	     58.16772340	      0.00000000	      0.00000000	     22.34685795	    -27.52928843	      3.14627052	    130.24885490	     56.58546098	      0.00000000	      0.00000000
      5.03000000	    -39.00939446	     -4.18211813	     -4.34566334	      0.37753892	      1.08575241	     -0.20293204	      0.00000000	      0.50000000	      0.00000000	      0.25000000	     87.58947638	      5.87187163	      3.58371130	     92.51602608	      1.61470927	      8.18684640	     -8.22045385	      0.00000000	      0.00000000	     43.99563767	    -11.09803794	     -3.07613584	     37.23145396	      0.64981146	    -37.08296377	    -15.20132503	      0.00000000	      0.00000000	    -64.95697245	      0.94527945	      3.40004295	     42.84479752	    -35.03446474	     31.43827710	    127.09262092	     58.17495459	      0.00000000	      0.00000000	     22.43249257	    -27.65583656	      2.82616904	    130.11588634	     56.52716233	      0.00000000	      0.00000000
      5.03500000	    -39.51175748	     -3.89079070	     -4.44916404	      0.37702309	      1.08651342	     -0.20237561	      0.00000000	      0.50000000	      0.00000000	      0.25000000	     86.75675737	      5.61726712	      3.52805747	     89.66555796	      1.56495921	      9.09720939	     -8.14672484	      0.00000000	      0.00000000	     45.55078287	    -10.70996580	     -1.82358777	     39.77006860	      0.69411864	    -37.36836670	    -15.66311035	      0.00000000	      0.00000000	    -64.47965924	      0.70895187	      3.21802972	     42.61054785	    -35.04929098	     31.32909263	    127.08166759	     58.13364724	      0.00000000	      0.00000000	     22.13808674	    -27.57203820	      2.09497927	    129.79867529	     56.41786291	      0.00000000	      0.00000000
      5.04000000	    -39.67867885	     -3.45814351	     -4.60705211	      0.37720642	      1.08759282	     -0.20146185	      0.00000000	      0.50000000	      0.00000000	      0.25000000	     85.51105921	      5.41300789	      3.63551289	     86.77971328	      1.51459172	      9.82098958	     -8.09794229	      0.00000000	      0.00000000	     46.67172925	    -10.31746018	     -1.03237276	     42.28435532	      0.73800122	    -37.63947326	    -16.18420060	      0.00000000	      0.00000000	    -64.33517339	      0.21338258	      2.98287497	     42.30234302	    -34.93640272	     31.46498120	    127.01657229	     58.14063610	      0.00000000	      0.00000000	     22.26530198	    -27.72511841	      1.90799510	    129.62588647	     56.37082344	      0.00000000	      0.00000000
      5.04500000	    -39.75370107	     -2.62721884	     -4.69720704	      0.37768666	      1.08876979	     -0.20062403	      0.00000000	      0.50000000	      0.00000000	      0.25000000	     84.13308994	      5.01392328	      4.07646931	     83.75229773	      1.46175335	     10.12558090	     -8.06328655	      0.00000000	      0.00000000	     47.45897447	     -9.48212027	     -0.41405849	     44.36626376	      0.77433738	    -37.91031435	    -16.27026675	      0.00000000	      0.00000000	    -64.27873613	     -0.45504494	      2.32371425	     42.04081751	    -34.97051388	     31.50533479	    127.04273787	     58.15399061	      0.00000000	      0.00000000	     22.26206843	    -27.72641677	      1.90205816	    129.43161944	     56.34170441	      0.00000000	      0.00000000
      5.05000000	    -40.09085526	     -2.47992861	     -4.67121248	      0.37768638	      1.08848864	     -0.19994530	      0.00000000	      0.50000000	      0.00000000	      0.25000000	     83.03772657	      4.70538160	      3.83382676	     80.81119571	      1.41042144	     10.39744259	     -7.91604678	      0.00000000	      0.00000000	     49.09287802	     -9.20410891	      0.52133381	     47.50978757	      0.82920222	    -37.62277857	    -17.11388587	      0.00000000	      0.00000000	    -63.75892667	     -0.60567186	      2.24564925	     41.34015744	    -34.75395689	     31.53920260	    126.90911697	     58.14205452	      0.00000000	      0.00000000	     22.25898284	    -28.13777757	      1.65072764	    128.94507373	     56.23744357	      0.00000000	      0.00000000
      5.05500000	    -40.09397061	     -1.56893667	     -4.63885709	      0.37834500	      1.08912467	     -0.19943500	      0.00000000	      0.50000000	      0.00000000	      0.25000000	     81.57253832	      4.09274530	      4.27324500	     77.75322440	      1.35704977	     10.34266440	     -7.74752094	      0.00000000	      0.00000000	     49.86846221	     -8.21540661	      0.92545380	     49.75219945	      0.86833969	    -37.62713245	    -17.21203891	      0.00000000	      0.00000000	    -63.63218485	     -1.19104425	      1.46134626	     41.01861063	    -34.76851440	     31.53837469	    126.94525171	     58.15214663	      0.00000000	      0.00000000	     22.24804914	    -28.12169174	      1.69779164	    128.68473096	     56.20553577	      0.00000000	      0.00000000
      5.06000000	    -40.46898491	     -1.15687220	     -4.57706529	      0.37819390	      1.08828400	     -0.19896499	      0.00000000	      0.50000000	      0.00000000	      0.25000000	     80.59251748	      3.52619574	      3.99455521	     74.80168768	      1.30553574	      9.75958240	     -7.72825252	      0.00000000	      0.00000000	     51.47083946	     -7.69594996	      1.54822141	     52.79356700	      0.92142157	    -36.88713115	    -17.59490420	      0.00000000	      0.00000000	    -62.85711586	     -1.55255385	      1.77605192	     38.75937310	    -34.66585651	     29.83362063	    127.20325242	     57.91413570	      0.00000000	      0.00000000	     23.14167364	    -28.04635578	      2.83979216	    126.93977027	     56.19361399	      0.00000000	      0.00000000
      5.06500000	    -40.28475412	     -0.46515902	     -4.46525459	      0.37906848	      1.08844892	     -0.19861459	      0.00000000	      0.50000000	      0.00000000	      0.25000000	     78.92883052	      2.91272861	      4.15903942	     71.86215646	      1.25423124	      9.32892075	     -7.65700240	      0.00000000	      0.00000000	     52.18249983	     -6.90724893	      1.82156785	     55.33872082	      0.96584288	    -36.25562033	    -17.91252126	      0.00000000	      0.00000000	    -62.83679914	     -1.99251268	      1.19815280	     38.18926505	    -34.54760265	     29.95002792	    127.07628678	     57.91640570	      0.00000000	      0.00000000	     23.42311698	    -28.28072219	      2.85885489	    126.63681976	     56.15070444	      0.00000000	      0.00000000
      5.07000000	    -40.10167163	      0.45737659	     -4.28843509	      0.37983458	      1.08839595	     -0.19841376	      0.00000000	      0.50000000	      0.00000000	      0.25000000	     77.39515575	      2.01722554	      4.35017255	     69.06032791	      1.20533010	      8.73199797	     -7.40316100	      0.00000000	      0.00000000	     52.88418984	     -5.93455171	      1.82589198	     57.78303592	      1.00850423	    -35.74667437	    -18.14049914	      0.00000000	      0.00000000	    -62.82395848	     -2.51413610	      0.32882180	     37.79263542	    -34.50146913	     30.02567686	    126.99832132	     57.92098723	      0.00000000	      0.00000000	     23.55746749	    -28.32773702	      3.02793289	    126.37162507	     56.13216101	      0.00000000	      0.00000000
      5.07500000	    -39.84185700	      1.19242768	     -4.11604423	      0.38043445	      1.08803984	     -0.19828950	      0.00000000	      0.50000000	      0.00000000	      0.25000000	     75.81788885	      1.14357027	      4.21356045	     66.31945721	      1.15749289	      7.64301035	     -7.37305764	      0.00000000	      0.00000000	     53.63041425	     -5.16666947	      1.85270678	     60.47171588	      1.05543055	    -34.52101068	    -18.17587867	      0.00000000	      0.00000000	    -62.77998422	     -2.89944727	     -0.28460469	     37.12491850	    -34.21617664	     30.10655406	    126.72916862	     57.89839601	      0.00000000	      0.00000000	     23.93117807	    -28.71340082	      3.32420025	    125.92816957	     56.10017849	      0.00000000	      0.00000000
